<?xml version="1.0" encoding="UTF-8"?>
<svg width="274px" height="90px" viewBox="0 0 274 90" version="1.1" xmlns="http://www.w3.org/2000/svg" xmlns:xlink="http://www.w3.org/1999/xlink">
    <!-- Generator: Sketch 41.2 (35397) - http://www.bohemiancoding.com/sketch -->
    <title>logo-hor</title>
    <desc>Created with Sketch.</desc>
    <defs></defs>
    <g id="--brandbook" stroke="none" stroke-width="1" fill="none" fill-rule="evenodd">
        <g id="logo-hor">
            <path d="M5.14285714,5.14285714 L12.8571429,5.14285714 L18,5.14285714 L20.5714286,5.14285714 L156.857143,5.14285714 L156.857143,79.7142857 L172.285714,79.7142857 L172.285714,90 L5.14285714,90 L5.14285714,5.14285714 Z M192.857143,3.85714286 L270.771397,3.85714286 L270.771397,12.8571429 L255.342826,12.8571429 L255.342826,30.2142857 L273.342826,46.9285714 L273.342826,90 L192.857143,90 L192.857143,3.85714286 Z" id="Combined-Shape" fill="#490982"></path>
            <path d="M0,84.7763318 L0,0.265490878 L10.0019333,0.265490878 L10.0019333,78.1266948 L21.2458649,78.1266948 L21.2458649,0.265490878 L37.3588696,0.265490878 L37.3588696,84.7763318 L0,84.7763318 Z M63.1440735,84.7763318 L47.0310688,84.7763318 L47.0310688,0.144588388 L83.1809135,0.144588388 L81.8180127,53.3416842 L74.1132267,53.3416842 L82.8182061,84.7763318 L72.4535653,84.7763318 L63.1440735,55.1222482 L63.1440735,84.7763318 Z M63.1440735,9.66291174 L63.1440735,46.6920473 L71.8160794,46.6920473 L72.2117603,9.66291174 L63.1440735,9.66291174 Z M97.7771415,84.7763318 L87.4125007,84.7763318 L95.2711626,0.144588388 L119.088953,0.144588388 L126.947615,84.7763318 L110.471903,84.7763318 L108.295658,61.4421511 L99.9533863,61.4421511 L97.7771415,84.7763318 Z M134.229116,73.3636364 L132.954545,0 L150.681818,0 L150.681818,73.3636364 L167.142857,73.3636364 L167.142857,84.8376623 L134.220779,84.8376623 L134.220779,73.3636364 L134.229116,73.3636364 Z M100.557899,54.7925141 L107.691146,54.7925141 L104.064071,16.4664246 L100.557899,54.7925141 Z M189,84.8442689 L189,54.7851565 L199.02705,54.7851565 L199.02705,78.1779335 L205.935798,78.1779335 L205.935798,6.78754151 L191.970541,6.78754151 L191.970541,0 L222.210471,0 L222.210471,84.8442689 L189,84.8442689 Z M266.345365,84.8571429 L232.160059,84.8571429 L232.160059,78.0685714 L250.068222,78.0685714 L250.068222,49.2061224 L232.160059,32.6755102 L232.160059,0 L266.345365,0 L266.345365,6.66734694 L248.437202,6.66734694 L248.437202,31.3971429 L266.345365,47.9277551 L266.345365,84.8571429 Z" id="Combined-Shape" fill="#00CC7B"></path>
        </g>
    </g>
</svg>